<svg width="161" height="57" viewBox="0 0 161 57" fill="none" xmlns="http://www.w3.org/2000/svg">
<path d="M68.4577 16.8878C68.4577 14.4319 69.6258 13.5223 70.9168 13.5223C72.5153 13.5223 73.2531 14.6441 73.2531 16.7059V25.4681H78.5096V14.9777C78.5096 11.0058 76.2041 8.85319 72.9457 8.85319C70.8554 8.85319 69.6565 9.64149 68.4577 10.9149V3.69893H63.2011V25.4681H68.4577V16.8878Z" fill="#262626"/>
<path d="M89.283 25.741C93.4021 25.741 96.3224 23.6489 97.3368 19.9197H92.0803C91.6192 21.1021 90.6355 21.7085 89.16 21.7085C87.4693 21.7085 86.4856 20.6777 86.209 18.616H97.429C98.3819 13.2495 94.7239 8.85319 89.2522 8.85319C84.3338 8.85319 80.768 12.4005 80.768 17.2819C80.768 22.3452 84.1801 25.741 89.283 25.741ZM89.1292 12.6734C90.697 12.6734 91.7421 13.7346 91.8036 15.3718H86.2704C86.6393 13.5527 87.5615 12.6734 89.1292 12.6734Z" fill="#262626"/>
<path d="M106.96 25.7713C111.663 25.7713 114.891 22.8606 115.352 18.1915H109.757C109.634 20.041 108.62 21.1324 106.991 21.1324C105.116 21.1324 104.071 19.7681 104.071 17.3122C104.071 14.917 105.146 13.5223 106.991 13.5223C108.589 13.5223 109.665 14.6441 109.757 16.433H115.352C114.891 11.8851 111.51 8.85319 106.96 8.85319C102.195 8.85319 98.6296 12.4612 98.6296 17.3122C98.6296 22.2846 102.042 25.7713 106.96 25.7713Z" fill="#262626"/>
<path d="M128.843 20.3745C128.259 20.7383 127.429 20.9505 126.569 20.9505C125.124 20.9505 124.448 20.2229 124.448 18.6463V13.6739H128.966V9.15638H124.448V4.36596H119.191V9.15638H116.117V13.6739H119.191V19.859C119.191 23.5883 121.374 25.7713 125.093 25.7713C126.569 25.7713 127.675 25.5287 128.843 24.892V20.3745Z" fill="#262626"/>
<path d="M138.608 25.7713C143.495 25.7713 147.246 21.9814 147.246 17.3122C147.246 12.6431 143.495 8.85319 138.608 8.85319C133.72 8.85319 129.97 12.6431 129.97 17.3122C129.97 21.9814 133.72 25.7713 138.608 25.7713ZM138.608 21.1324C136.978 21.1324 135.441 19.859 135.441 17.3122C135.441 14.7654 136.978 13.5223 138.608 13.5223C140.237 13.5223 141.774 14.7654 141.774 17.3122C141.774 19.859 140.237 21.1324 138.608 21.1324Z" fill="#262626"/>
<path d="M154.914 17.9489C154.914 14.341 157.28 14.0681 161 14.4319V9.0351C158.356 9.0351 155.743 10.1266 154.483 12.0367V9.15638H149.657V25.4681H154.914V17.9489Z" fill="#262626"/>
<path d="M68.5191 50.9362V29.167H63.2011V50.9362H68.5191Z" fill="#262626"/>
<path d="M81.6499 50.9362H85.892V40.8702C85.892 36.7468 83.2176 34.3213 78.6681 34.3213C74.5797 34.3213 71.7209 36.8074 71.4135 40.5973H76.1474C76.3319 39.1723 77.1926 38.384 78.6374 38.384C80.1129 38.384 80.9428 39.1723 80.9428 40.5973V41.3856C80.2358 41.2644 79.4059 41.2037 78.5144 41.2037C73.7805 41.2037 71.1676 42.9319 71.1676 46.1154C71.1676 49.208 73.4731 51.2394 76.9159 51.2394C79.037 51.2394 80.4818 50.6633 81.6499 49.3596V50.9362ZM76.1167 45.9638C76.1167 44.842 77.0696 44.266 78.8525 44.266C79.5288 44.266 80.1436 44.3266 80.9428 44.4782V45.509C80.9428 46.8431 79.8977 47.6617 78.1455 47.6617C76.8544 47.6617 76.1167 47.025 76.1167 45.9638Z" fill="#262626"/>
<path d="M106.29 42.7803C106.29 38.0505 103.37 34.3213 98.9124 34.3213C97.191 34.3213 95.7155 34.9277 94.4244 36.1404V29.167H89.1679V50.9362H93.9941V49.0867C95.3466 50.4814 96.9758 51.2394 98.9124 51.2394C103.37 51.2394 106.29 47.4495 106.29 42.7803ZM100.818 42.7803C100.818 45.3271 99.2506 46.5702 97.6521 46.5702C96.0229 46.5702 94.4859 45.3271 94.4859 42.75C94.4859 40.1426 96.0536 38.9904 97.6521 38.9904C99.2506 38.9904 100.818 40.1729 100.818 42.7803Z" fill="#262626"/>
<path d="M123.343 45.3878C123.343 43.0532 121.653 41.5069 118.456 40.9309L114.951 40.2941C113.906 40.1122 113.384 39.9 113.384 39.2027C113.384 38.475 114.183 38.1415 115.413 38.1415C116.857 38.1415 117.872 38.9298 117.995 40.2335H123.036C122.729 36.5952 119.716 34.3213 115.382 34.3213C111.047 34.3213 108.342 36.5346 108.342 39.6878C108.342 42.3255 110.187 43.9628 113.076 44.4782L116.335 45.0543C117.472 45.2665 118.025 45.5697 118.025 46.2973C118.025 47.1463 116.95 47.4191 115.751 47.4191C113.937 47.4191 112.677 46.5399 112.677 45.1755H107.635C107.974 48.9351 110.679 51.2394 115.658 51.2394C120.638 51.2394 123.343 48.9957 123.343 45.3878Z" fill="#262626"/>
<path d="M131.569 47.783C131.569 45.8122 130.216 44.4479 128.249 44.4479C126.281 44.4479 124.898 45.8122 124.898 47.783C124.898 49.7234 126.281 51.0878 128.249 51.0878C130.216 51.0878 131.569 49.7234 131.569 47.783Z" fill="#262626"/>
<path d="M0 28.5C0 44.2401 12.9369 57 28.8955 57C44.854 57 57.7909 44.2401 57.7909 28.5C57.7909 12.7599 44.854 0 28.8955 0C12.9369 0 0 12.7599 0 28.5Z" fill="#0A3598"/>
</svg>
