<svg width="119" height="42" viewBox="0 0 119 42" fill="none" xmlns="http://www.w3.org/2000/svg">
<g opacity="0.45">
<path d="M41.8004 31.3559C41.8567 33.0285 42.2794 34.492 43.0685 35.7465C43.8857 37.0288 45.0411 38.0324 46.5346 38.7572C48.0282 39.482 49.8317 39.8444 51.9453 39.8444C53.7206 39.8444 55.3692 39.482 56.8909 38.7572C58.4126 38.0324 59.6385 36.9034 60.5684 35.3701C61.5266 33.8648 62.0056 31.9552 62.0056 29.6414V10.8244H57.525V29.6414C57.525 31.091 57.2432 32.2758 56.6796 33.1957C56.1441 34.1157 55.4396 34.7987 54.566 35.2447C53.6924 35.6907 52.7766 35.9137 51.8184 35.9137C50.7194 35.9137 49.7613 35.7047 48.9441 35.2865C48.155 34.8962 47.535 34.3526 47.0842 33.6557C46.6333 32.9867 46.3937 32.22 46.3656 31.3559H41.8004ZM41.4199 20.3584C41.4199 22.4491 41.8567 24.2333 42.7303 25.7108C43.6039 27.1882 44.7593 28.3173 46.1965 29.0978C47.6337 29.8784 49.1977 30.2687 50.8885 30.2687C52.1003 30.2687 53.2134 30.0456 54.2279 29.5996C55.2424 29.1536 56.1159 28.5124 56.8486 27.6761C57.5813 26.8119 58.1449 25.7665 58.5394 24.5399C58.9622 23.3133 59.1735 21.9195 59.1735 20.3584C59.1735 18.7973 58.9622 17.4034 58.5394 16.1768C58.1449 14.9502 57.5813 13.9048 56.8486 13.0406C56.1159 12.1765 55.2424 11.5213 54.2279 11.0753C53.2134 10.6293 52.1003 10.4063 50.8885 10.4063C49.1977 10.4063 47.6337 10.7965 46.1965 11.5771C44.7593 12.3577 43.6039 13.4867 42.7303 14.9642C41.8567 16.4416 41.4199 18.2397 41.4199 20.3584ZM46.1542 20.3584C46.1542 19.076 46.4219 17.9888 46.9573 17.0968C47.4928 16.2047 48.1973 15.5217 49.0709 15.0478C49.9726 14.5739 50.9449 14.3369 51.9875 14.3369C52.6357 14.3369 53.2838 14.4763 53.932 14.7551C54.6083 15.006 55.2142 15.3823 55.7496 15.8841C56.285 16.3859 56.7077 17.0131 57.0177 17.7658C57.3559 18.5185 57.525 19.3827 57.525 20.3584C57.525 21.3341 57.3559 22.1983 57.0177 22.9509C56.7077 23.7036 56.285 24.3308 55.7496 24.8326C55.2142 25.3344 54.6083 25.7108 53.932 25.9617C53.2838 26.2125 52.6357 26.338 51.9875 26.338C50.9449 26.338 49.9726 26.115 49.0709 25.6689C48.1973 25.195 47.4928 24.512 46.9573 23.62C46.4219 22.7279 46.1542 21.6407 46.1542 20.3584Z" fill="#202020"/>
<path d="M65.8073 3.17218C65.8073 3.95274 66.0891 4.60785 66.6527 5.13751C67.2163 5.66717 67.8927 5.93201 68.6817 5.93201C69.4989 5.93201 70.1753 5.66717 70.7107 5.13751C71.2743 4.60785 71.5561 3.95274 71.5561 3.17218C71.5561 2.39162 71.2743 1.73651 70.7107 1.20685C70.1753 0.677185 69.4989 0.412354 68.6817 0.412354C67.8927 0.412354 67.2163 0.677185 66.6527 1.20685C66.0891 1.73651 65.8073 2.39162 65.8073 3.17218ZM66.4414 10.8244V30.0596H70.922V10.8244H66.4414Z" fill="#202020"/>
<path d="M79.9521 39.259V10.8244H75.3446V39.259H79.9521ZM96.0571 20.442C96.0571 18.2955 95.6203 16.4695 94.7467 14.9642C93.8731 13.4588 92.7177 12.3158 91.2805 11.5353C89.8433 10.7269 88.2793 10.3226 86.5885 10.3226C85.3486 10.3226 84.2214 10.5596 83.2069 11.0335C82.2206 11.5074 81.3611 12.1904 80.6284 13.0825C79.9239 13.9467 79.3744 15.006 78.9798 16.2604C78.6135 17.487 78.4303 18.8809 78.4303 20.442C78.4303 22.0031 78.6135 23.4109 78.9798 24.6654C79.3744 25.892 79.9239 26.9513 80.6284 27.8434C81.3611 28.7075 82.2206 29.3766 83.2069 29.8505C84.2214 30.3244 85.3486 30.5614 86.5885 30.5614C88.2793 30.5614 89.8433 30.1711 91.2805 29.3905C92.7177 28.5821 93.8731 27.4252 94.7467 25.9198C95.6203 24.4145 96.0571 22.5885 96.0571 20.442ZM91.3228 20.442C91.3228 21.7243 91.0551 22.8115 90.5197 23.7036C89.9842 24.5957 89.2797 25.2787 88.4062 25.7526C87.5326 26.2265 86.5603 26.4634 85.4895 26.4634C84.8413 26.4634 84.1791 26.338 83.5028 26.0871C82.8546 25.8083 82.2629 25.418 81.7274 24.9163C81.192 24.4145 80.7552 23.7872 80.417 23.0346C80.1071 22.2819 79.9521 21.4177 79.9521 20.442C79.9521 19.4663 80.1071 18.6021 80.417 17.8494C80.7552 17.0968 81.192 16.4695 81.7274 15.9677C82.2629 15.466 82.8546 15.0896 83.5028 14.8387C84.1791 14.5599 84.8413 14.4206 85.4895 14.4206C86.5603 14.4206 87.5326 14.6575 88.4062 15.1314C89.2797 15.6053 89.9842 16.2883 90.5197 17.1804C91.0551 18.0725 91.3228 19.1597 91.3228 20.442Z" fill="#202020"/>
<path d="M97.1938 20.442C97.1938 22.3934 97.6447 24.1357 98.5464 25.6689C99.4764 27.1743 100.73 28.3591 102.309 29.2233C103.915 30.0596 105.704 30.4777 107.677 30.4777C109.678 30.4777 111.467 30.0596 113.045 29.2233C114.623 28.3591 115.863 27.1743 116.765 25.6689C117.695 24.1357 118.16 22.3934 118.16 20.442C118.16 18.4627 117.695 16.7204 116.765 15.2151C115.863 13.7097 114.623 12.5389 113.045 11.7026C111.467 10.8384 109.678 10.4063 107.677 10.4063C105.704 10.4063 103.915 10.8384 102.309 11.7026C100.73 12.5389 99.4764 13.7097 98.5464 15.2151C97.6447 16.7204 97.1938 18.4627 97.1938 20.442ZM101.886 20.442C101.886 19.2433 102.139 18.1979 102.647 17.3058C103.154 16.3859 103.844 15.675 104.718 15.1732C105.592 14.6436 106.578 14.3787 107.677 14.3787C108.776 14.3787 109.762 14.6436 110.636 15.1732C111.509 15.675 112.2 16.3859 112.707 17.3058C113.214 18.1979 113.468 19.2433 113.468 20.442C113.468 21.6407 113.214 22.7 112.707 23.62C112.2 24.512 111.509 25.2229 110.636 25.7526C109.762 26.2544 108.776 26.5053 107.677 26.5053C106.578 26.5053 105.592 26.2544 104.718 25.7526C103.844 25.2229 103.154 24.512 102.647 23.62C102.139 22.7 101.886 21.6407 101.886 20.442Z" fill="#202020"/>
<path fill-rule="evenodd" clip-rule="evenodd" d="M29.1713 9.54464C26.0989 7.09662 22.2023 5.6329 17.9627 5.6329C8.04216 5.6329 0 13.6473 0 23.5336C0 33.4199 8.04216 41.4344 17.9627 41.4344C27.8832 41.4344 35.9254 33.4199 35.9254 23.5336C35.9254 19.5974 34.6505 15.9579 32.4897 13.0028L39.8149 5.70287L36.4206 2.32031L29.1713 9.54464ZM25.5459 13.1575L14.78 23.8863L18.1743 27.2688L28.8334 16.6465C30.1056 18.6365 30.8426 20.9993 30.8426 23.5336C30.8426 30.6225 25.0761 36.3692 17.9627 36.3692C10.8493 36.3692 5.08275 30.6225 5.08275 23.5336C5.08275 16.4448 10.8493 10.6981 17.9627 10.6981C20.7976 10.6981 23.4186 11.6109 25.5459 13.1575Z" fill="black"/>
</g>
</svg>
