<svg width="542" height="146" viewBox="0 0 542 146" fill="none" xmlns="http://www.w3.org/2000/svg">
<path fill-rule="evenodd" clip-rule="evenodd" d="M271.661 58.4308C271.162 60.1336 265.471 71.5554 265.471 71.5554L267.771 71.5511L280.352 53.2226V51.66C280.352 51.66 269.385 51.6752 264.028 51.6879V53.2536C264.028 53.2536 273.306 52.8501 271.661 58.4308V58.4308ZM302.26 84.4051L302.22 58.5515C302.21 55.4662 302.539 55.0275 309.344 55.0141C321.511 54.9909 327.332 63.5515 327.347 71.9207C327.359 80.7433 322.589 85.2481 322.07 85.5812C322.07 85.5812 322.378 85.7791 323.767 85.7779C327.829 85.7706 337.332 81.5584 337.31 70.2573C337.301 62.9556 333.559 57.6115 328.295 54.8661C323.246 52.1346 316.246 51.5951 309.439 51.6048C298.696 51.6247 290.531 51.6381 284.308 51.6497L284.315 53.2154C284.315 53.2154 293.212 53.3088 293.224 61.0646C293.224 61.0646 293.256 78.3863 293.262 82.2435C293.262 82.2435 293.357 84.4215 295.342 84.4173L302.26 84.4051ZM352.349 123.216C350.445 123.219 348.383 122.368 345.581 120.078C338.015 113.93 335.96 110.252 327.154 96.0788C326.606 95.2012 321.926 88.2083 315.015 88.2211C312.18 88.2258 297.333 88.2534 295.352 88.2587C293.358 88.2599 293.274 90.4386 293.274 90.4386L293.309 109.244C293.328 120.795 293.122 122.23 286.754 123.003L283.624 123.336L283.628 124.913L311.613 124.861L311.609 123.287L308.912 122.962C302.55 122.097 302.329 120.778 302.306 109.228L302.276 94.2078C302.272 91.9017 302.574 91.5315 304.51 91.5285L308.252 91.5332C312.636 91.5231 313.849 92.6219 315.494 95.0378C318.895 99.9801 323.986 108.643 326.846 112.71C334.654 123.803 339.439 124.806 348.764 124.791C349.914 124.788 350.906 124.774 352.356 124.772C352.356 123.94 352.356 123.854 352.35 123.216L352.349 123.216ZM254.255 91.3762C249.679 83.141 240.543 64.3841 237.979 58.8999C236.024 54.701 240.535 53.2694 243.356 53.2651V51.7225C243.356 51.7225 221.425 51.7638 218.02 51.7698C218.02 52.4404 218.02 52.5363 218.024 53.3634C220.376 53.3591 225.426 54.2938 229.169 61.544L243.082 88.6841C246.276 94.8335 246.604 96.1564 246.62 102.204L246.631 109.109C246.654 120.878 246.443 122.421 240.076 123.087L235.489 123.424C235.491 124.116 235.493 124.996 235.493 124.996L266.795 124.941C266.795 124.941 266.791 124.03 266.791 123.368L262.226 123.045C256.31 122.619 255.646 120.861 255.625 109.091L255.613 102.187C255.602 96.0915 255.634 93.8661 254.255 91.3761V91.3762ZM511.653 88.1628L505.7 70.2422C504.824 67.6053 503.824 64.6414 503.169 63.3172H502.944C502.621 63.8725 501.529 66.5154 500.326 69.8167L493.45 88.9657C492.574 91.4994 492.686 91.608 495.757 91.6038L509.243 91.5802C512.428 91.5758 512.645 91.1347 511.653 88.1629L511.653 88.1628ZM541.111 122.877V124.451C541.111 124.451 517.687 124.49 514.458 124.497V122.924C521.608 122.916 521.469 120.6 521.469 119.494C521.465 118.285 520.916 116.307 520.032 113.67L515.188 98.7198C514.405 96.2984 513.96 95.9689 510.677 95.975L494.117 96.0058C491.389 96.012 490.729 96.3371 489.951 98.6499L486.142 110.207C484.503 115.164 483.742 118.134 483.742 119.341C483.746 120.667 484.718 122.948 490.544 122.935V124.541L468.186 124.581C468.186 124.581 468.186 124.527 468.182 123.052C473.831 123.041 476.841 120.123 478.368 116.165C480.332 111.095 483.389 103.942 487.977 91.6182L501.04 56.6604L500.572 55.2871L507.804 49.8896L528.252 109.806C530.633 116.847 532.095 119.14 534.263 120.844C535.139 121.52 537.79 122.885 541.112 122.877L541.111 122.877ZM421.068 109.014C421.086 120.563 420.864 122.108 414.509 122.775L411.219 123.109C411.222 123.98 411.222 123.947 411.222 124.686C417.47 124.674 462.665 124.592 462.665 124.592L466.524 108.933C466.524 108.933 465.597 108.61 464.983 108.454C462.8 114.066 459.902 118.104 457.711 119.431C455.959 120.416 453.648 120.866 444.333 120.881C435.677 120.899 433.592 119.586 432.381 118.373C430.401 116.286 430.065 113.431 430.051 106.497L429.985 67.0386C429.963 55.4827 430.177 53.7294 436.648 53.1681L439.273 52.9405V51.3748C433.492 51.3846 411.09 51.4245 411.09 51.4245C411.09 51.4245 411.09 51.8888 411.094 52.9927L413.837 53.2063C420.748 53.7446 420.967 55.5002 420.991 67.0531L421.068 109.014ZM360.775 109.101C360.791 120.65 359.644 122.656 353.405 123.216L350.389 123.193C350.389 124.415 350.389 123.727 350.39 124.788C351.226 124.784 404.597 124.692 404.597 124.692L408.452 109.041C408.452 109.041 408.016 108.902 406.938 108.632C404.103 114.355 401.152 118.212 399.174 119.312C396.765 120.522 393.588 120.972 385.145 120.987C375.495 121.005 373.188 119.795 371.875 118.482C370.112 116.619 369.772 114.032 369.761 108.208L369.736 91.5387C369.729 88.6743 370.058 88.5608 373.356 88.5529L379.708 88.5431C383.983 88.537 386.618 88.642 388.151 89.082C390.343 89.6337 391.12 91.2819 391.559 93.256L392.558 97.546L394.111 97.5429L394.078 75.6509L392.517 75.6564L391.647 80.1708C391.108 82.9157 390.333 83.5796 389.019 84.0171C387.707 84.4626 384.311 84.6883 379.696 84.6962L373.347 84.7053C370.055 84.7136 369.723 84.7154 369.714 81.6333L369.682 59.6388C369.671 55.4587 369.671 55.2402 372.964 55.2317L380.861 55.2172C385.686 55.2074 389.198 55.3125 391.492 55.8575C397.202 57.2763 398.197 61.1293 399.854 66.2943C401.082 66.1826 401.417 66.1535 401.417 66.1535L399.594 51.445C399.594 51.445 353.257 51.5275 352.231 51.5293V53.0974L353.994 53.3165C360.461 54.069 360.68 55.7215 360.704 67.1651L360.775 109.101ZM160.106 59.7877C168.096 53.5024 178.293 50.4062 189.695 50.3868C195.617 50.3777 203.951 51.5756 209.11 52.9957C210.425 53.3228 212.188 53.6839 212.188 53.6839L213.762 69.8343C213.762 69.8343 213.411 69.8362 212.196 69.8362C210.533 62.3596 204.181 53.7743 188.282 53.7986C171.505 53.833 157.262 64.5231 157.304 87.2932C157.347 110.393 171.946 123.125 189.934 123.093C204.08 123.067 211.778 113.809 214.284 107.311C215.441 107.311 215.85 107.305 215.85 107.305L210.442 122.838C210.442 122.838 207.809 123.511 206.601 123.95C204.198 124.83 196.3 126.496 189.283 126.509C179.412 126.528 169.979 124.563 161.967 119.186C153.184 113.152 146.366 103.155 146.339 88.9639C146.318 76.7544 151.782 66.2982 160.106 59.7877Z" fill="#B7B7B8"/>
<path fill-rule="evenodd" clip-rule="evenodd" d="M85.6596 121.895C85.6596 123.645 84.2342 125.073 82.4912 125.073H24.5837C22.8395 125.073 21.411 123.645 21.411 121.895V63.8057C21.411 62.0622 22.8395 60.6312 24.5837 60.6312H82.4912C84.2342 60.6312 85.6596 62.0622 85.6596 63.8057V121.895ZM0.888428 145.388V40.3122H105.638V92.8502V145.388H0.888428ZM53.0238 0.612924C52.6548 0.809548 104.913 28.5966 104.913 28.5966H1.61359C1.61359 28.5966 53.3941 0.408411 53.0238 0.612924Z" fill="#B7B7B8"/>
</svg>
